<svg width="400" height="80" viewBox="0 0 400 80" fill="none" xmlns="http://www.w3.org/2000/svg">
<path d="M65.0277 17.9127L22.6912 62.2391H65.0277V78.0266H0V62.2391L42.3365 17.9127H0V2.12524H65.0277V17.9127Z" fill="white"/>
<path d="M112.397 80C105.392 80 98.9954 78.2037 93.2084 74.611C87.4722 71.0183 82.8781 66.2113 79.4262 60.1898C76.0251 54.1176 74.3245 47.413 74.3245 40.0759C74.3245 34.5098 75.3144 29.3232 77.2942 24.5161C79.2739 19.6584 81.9898 15.408 85.4417 11.7647C88.9443 8.07084 93.0054 5.18659 97.6248 3.11195C102.244 1.03732 107.168 0 112.397 0C118.235 0 123.59 1.21442 128.463 3.64326C133.337 6.0215 137.499 9.33586 140.951 13.5863C144.403 17.7862 146.941 22.6439 148.566 28.1594C150.19 33.6243 150.672 39.4434 150.012 45.6167H91.3048C91.9647 49.1082 93.2338 52.2707 95.1121 55.1044C97.0411 57.8874 99.4777 60.0886 102.422 61.7078C105.417 63.327 108.742 64.1619 112.397 64.2125C116.255 64.2125 119.758 63.2511 122.905 61.3283C126.103 59.4054 128.717 56.7489 130.748 53.3586L146.814 57.0778C143.769 63.8077 139.175 69.3232 133.032 73.6243C126.89 77.8748 120.011 80 112.397 80ZM90.7718 33.5484H134.022C133.514 29.9051 132.22 26.6161 130.139 23.6812C128.108 20.6958 125.545 18.3428 122.448 16.6224C119.402 14.8514 116.052 13.9658 112.397 13.9658C108.793 13.9658 105.442 14.8261 102.346 16.5465C99.3 18.2669 96.7619 20.6199 94.7313 23.6053C92.7516 26.5402 91.4317 29.8545 90.7718 33.5484Z" fill="white"/>
<path d="M195.978 80C188.972 80 182.576 78.2037 176.789 74.611C171.053 71.0183 166.459 66.2113 163.007 60.1898C159.606 54.1176 157.905 47.413 157.905 40.0759C157.905 34.5098 158.895 29.3232 160.875 24.5161C162.855 19.6584 165.571 15.408 169.023 11.7647C172.525 8.07084 176.586 5.18659 181.206 3.11195C185.825 1.03732 190.749 0 195.978 0C202.983 0 209.354 1.79633 215.09 5.38899C220.877 8.98165 225.471 13.814 228.872 19.8861C232.324 25.9583 234.05 32.6882 234.05 40.0759C234.05 45.5914 233.06 50.7527 231.081 55.5598C229.101 60.3669 226.36 64.6173 222.857 68.3112C219.405 71.9545 215.369 74.8134 210.75 76.8881C206.181 78.9627 201.257 80 195.978 80ZM195.978 64.2125C200.191 64.2125 203.973 63.0993 207.323 60.8729C210.674 58.6464 213.313 55.7116 215.242 52.0683C217.222 48.3744 218.212 44.377 218.212 40.0759C218.212 35.6736 217.197 31.6256 215.166 27.9317C213.187 24.2378 210.521 21.303 207.171 19.1271C203.821 16.9007 200.09 15.7875 195.978 15.7875C191.815 15.7875 188.033 16.9007 184.632 19.1271C181.282 21.3536 178.617 24.3137 176.637 28.0076C174.708 31.7015 173.744 35.7242 173.744 40.0759C173.744 44.5794 174.759 48.6527 176.789 52.296C178.82 55.9393 181.51 58.8488 184.861 61.0247C188.262 63.1499 191.968 64.2125 195.978 64.2125Z" fill="#0363F5"/>
<path d="M314.883 30.4364V78.0266H299.045V34.3074C299.045 30.9171 298.207 27.8305 296.532 25.0474C294.907 22.2644 292.699 20.0633 289.907 18.444C287.166 16.7742 284.069 15.9393 280.618 15.9393C277.267 15.9393 274.196 16.7742 271.404 18.444C268.612 20.0633 266.378 22.2644 264.703 25.0474C263.028 27.8305 262.191 30.9171 262.191 34.3074V78.0266H246.352V2.12524H262.191V10.1708C264.83 7.03352 268.079 4.55408 271.937 2.73244C275.795 0.910815 279.958 0 284.425 0C290.06 0 295.187 1.36622 299.806 4.09867C304.426 6.83112 308.08 10.4997 310.771 15.1044C313.512 19.709 314.883 24.8197 314.883 30.4364Z" fill="#0363F5"/>
<path d="M362.099 80C355.093 80 348.697 78.2037 342.91 74.611C337.174 71.0183 332.58 66.2113 329.128 60.1898C325.727 54.1176 324.026 47.413 324.026 40.0759C324.026 34.5098 325.016 29.3232 326.996 24.5161C328.975 19.6584 331.691 15.408 335.143 11.7647C338.646 8.07084 342.707 5.18659 347.326 3.11195C351.946 1.03732 356.87 0 362.099 0C367.936 0 373.292 1.21442 378.165 3.64326C383.038 6.0215 387.201 9.33586 390.653 13.5863C394.105 17.7862 396.643 22.6439 398.267 28.1594C399.892 33.6243 400.374 39.4434 399.714 45.6167H341.006C341.666 49.1082 342.935 52.2707 344.814 55.1044C346.743 57.8874 349.179 60.0886 352.124 61.7078C355.119 63.327 358.444 64.1619 362.099 64.2125C365.957 64.2125 369.459 63.2511 372.606 61.3283C375.805 59.4054 378.419 56.7489 380.449 53.3586L396.516 57.0778C393.47 63.8077 388.876 69.3232 382.734 73.6243C376.591 77.8748 369.713 80 362.099 80ZM340.473 33.5484H383.724C383.216 29.9051 381.922 26.6161 379.84 23.6812C377.81 20.6958 375.246 18.3428 372.15 16.6224C369.104 14.8514 365.753 13.9658 362.099 13.9658C358.494 13.9658 355.144 14.8261 352.047 16.5465C349.002 18.2669 346.463 20.6199 344.433 23.6053C342.453 26.5402 341.133 29.8545 340.473 33.5484Z" fill="#0363F5"/>
</svg>
